<svg id="Nav_3" data-name="Nav 3" xmlns="http://www.w3.org/2000/svg" width="24" height="24" viewBox="0 0 24 24">
  <g id="Icon_3" data-name="Icon 3" transform="translate(4 5)">
    <path id="Rectangle" d="M11.333,0,12,6H0L.667,0" transform="translate(2 8)" fill="none" stroke="#363837" stroke-linecap="round" stroke-linejoin="round" stroke-miterlimit="10" stroke-width="1"/>
    <path id="Combined_Shape" data-name="Combined Shape" d="M4.616,7.768a4.025,4.025,0,0,1-.924.107A3.545,3.545,0,0,1,0,4.5,3.545,3.545,0,0,1,3.693,1.125a4.025,4.025,0,0,1,.924.107,5.264,5.264,0,0,1,6.767,0,4.028,4.028,0,0,1,.924-.107A3.545,3.545,0,0,1,16,4.5a3.545,3.545,0,0,1-3.693,3.375,4.028,4.028,0,0,1-.924-.107,5.264,5.264,0,0,1-6.767,0Z" fill="none" stroke="#363837" stroke-linecap="round" stroke-linejoin="round" stroke-miterlimit="10" stroke-width="1"/>
  </g>
</svg>
