<svg id="Settings" xmlns="http://www.w3.org/2000/svg" width="20" height="20" viewBox="0 0 20 20">
  <path id="Path" d="M5,12.258A5.8,5.8,0,0,1,3.724,11.7l-.135.135a.833.833,0,0,1-1.179,0l-.917-.917a.833.833,0,0,1,0-1.179l.135-.135a5.8,5.8,0,0,1-.554-1.276H.833A.833.833,0,0,1,0,7.5V5.833A.833.833,0,0,1,.833,5h.242a5.8,5.8,0,0,1,.554-1.276l-.135-.135a.833.833,0,0,1,0-1.179l.917-.917a.833.833,0,0,1,1.179,0l.135.135A5.8,5.8,0,0,1,5,1.075V.833A.833.833,0,0,1,5.833,0H7.5a.833.833,0,0,1,.833.833v.242a5.8,5.8,0,0,1,1.276.554l.135-.135a.833.833,0,0,1,1.179,0l.917.917a.833.833,0,0,1,0,1.179l-.135.135A5.8,5.8,0,0,1,12.258,5H12.5a.833.833,0,0,1,.833.833V7.5a.833.833,0,0,1-.833.833h-.242A5.8,5.8,0,0,1,11.7,9.609l.135.135a.833.833,0,0,1,0,1.179l-.917.917a.833.833,0,0,1-1.179,0L9.609,11.7a5.8,5.8,0,0,1-1.276.554V12.5a.833.833,0,0,1-.833.833H5.833A.833.833,0,0,1,5,12.5v-.242Z" transform="translate(3.333 3.333)" fill="none" stroke="#363837" stroke-linecap="round" stroke-linejoin="round" stroke-miterlimit="10" stroke-width="1"/>
  <circle id="Oval" cx="3.333" cy="3.333" r="3.333" transform="translate(6.667 6.667)" fill="none" stroke="#363837" stroke-miterlimit="10" stroke-width="1"/>
</svg>
